<?xml version="1.0" encoding="utf-8"?>
<!-- Generator: Adobe Illustrator 26.3.1, SVG Export Plug-In . SVG Version: 6.00 Build 0)  -->
<svg version="1.1" id="Ebene_1" xmlns="http://www.w3.org/2000/svg" xmlns:xlink="http://www.w3.org/1999/xlink" x="0px" y="0px"
	 viewBox="0 0 184.76 160.97" style="enable-background:new 0 0 184.76 160.97;" xml:space="preserve">
<style type="text/css">
	.st0{fill-rule:evenodd;clip-rule:evenodd;fill:#393939;}
	.st1{fill:#638EF6;}
	.st2{fill:#FFFFFF;}
	.st3{fill:#393939;}
</style>
<g>
	<path class="st0" d="M43.2,0C19.36,0,0.01,19.36,0.01,43.2S19.36,86.39,43.2,86.39h43.09h0c0-0.02,0.1-42.21,0.1-43.19
		C86.39,19.36,67.04,0,43.2,0z"/>
	<g>
		<g>
			<polygon class="st1" points="74.47,27.58 19.33,19.25 19.33,19.25 19.33,19.25 19.33,19.25 19.33,19.25 28.61,74.87 59.14,59.07 
				59.14,59.07 			"/>
		</g>
		<g>
			<polygon class="st2" points="76.4,34.26 62.49,62.42 62.49,62.42 34.35,76.8 76.97,76.9 76.98,76.9 			"/>
		</g>
	</g>
</g>
<g>
	<path class="st3" d="M21.16,146.01H8.23v8.16h15.28v6.33H0v-34.12h23.55v6.35H8.23v7.2h12.94V146.01z"/>
	<path class="st3" d="M55.35,160.5h-8.18l-12.09-21.23v21.23h-8.23v-34.12h8.23l12.07,21.23v-21.23h8.2V160.5z"/>
	<path class="st3" d="M78.16,151.43c0-1.2-0.43-2.14-1.28-2.81c-0.85-0.67-2.35-1.37-4.49-2.09c-2.14-0.72-3.89-1.41-5.25-2.09
		c-4.42-2.17-6.63-5.16-6.63-8.95c0-1.89,0.55-3.56,1.65-5s2.66-2.57,4.68-3.37c2.02-0.8,4.28-1.21,6.8-1.21
		c2.45,0,4.65,0.44,6.6,1.31c1.94,0.87,3.46,2.12,4.53,3.74c1.08,1.62,1.62,3.46,1.62,5.54h-8.2c0-1.39-0.43-2.47-1.28-3.23
		c-0.85-0.77-2-1.15-3.46-1.15c-1.47,0-2.63,0.32-3.48,0.97s-1.28,1.47-1.28,2.47c0,0.88,0.47,1.67,1.41,2.38s2.59,1.45,4.94,2.2
		c2.36,0.76,4.3,1.57,5.81,2.45c3.69,2.12,5.53,5.05,5.53,8.79c0,2.98-1.12,5.33-3.37,7.03c-2.25,1.7-5.34,2.55-9.26,2.55
		c-2.77,0-5.27-0.5-7.51-1.49c-2.24-0.99-3.93-2.35-5.06-4.08s-1.7-3.71-1.7-5.96h8.25c0,1.83,0.47,3.18,1.42,4.04s2.48,1.3,4.6,1.3
		c1.36,0,2.43-0.29,3.22-0.88C77.76,153.31,78.16,152.49,78.16,151.43z"/>
	<path class="st1" d="M108.1,126.37l12.58,30.12l12.63-30.12h3.84v34.12h-2.88v-14.86l0.23-15.23l-12.7,30.09h-2.23l-12.65-29.98
		l0.23,15.02v14.95h-2.88v-34.12H108.1z"/>
	<path class="st1" d="M161.16,160.5c-0.28-0.8-0.46-1.98-0.54-3.54c-0.98,1.28-2.24,2.27-3.76,2.96c-1.52,0.7-3.14,1.04-4.84,1.04
		c-2.44,0-4.41-0.68-5.92-2.04c-1.51-1.36-2.26-3.08-2.26-5.16c0-2.47,1.03-4.42,3.08-5.86c2.05-1.44,4.92-2.16,8.59-2.16h5.08
		v-2.88c0-1.81-0.56-3.24-1.68-4.28c-1.12-1.04-2.75-1.56-4.89-1.56c-1.95,0-3.57,0.5-4.85,1.5c-1.28,1-1.92,2.2-1.92,3.61
		l-2.81-0.02c0-2.02,0.94-3.76,2.81-5.24c1.87-1.48,4.18-2.21,6.91-2.21c2.83,0,5.06,0.71,6.69,2.12c1.63,1.41,2.47,3.39,2.52,5.92
		v12c0,2.45,0.26,4.29,0.77,5.51v0.28H161.16z M152.35,158.48c1.88,0,3.55-0.45,5.03-1.36c1.48-0.91,2.55-2.12,3.22-3.63v-5.58
		h-5.01c-2.8,0.03-4.98,0.54-6.56,1.54s-2.37,2.36-2.37,4.09c0,1.42,0.53,2.6,1.58,3.54C149.29,158.01,150.66,158.48,152.35,158.48z
		"/>
	<path class="st1" d="M170.7,127.81c0-0.53,0.17-0.97,0.52-1.34c0.34-0.36,0.81-0.55,1.41-0.55c0.59,0,1.07,0.18,1.42,0.55
		s0.53,0.81,0.53,1.34c0,0.53-0.18,0.97-0.53,1.33c-0.35,0.36-0.82,0.54-1.42,0.54c-0.59,0-1.06-0.18-1.41-0.54
		C170.87,128.79,170.7,128.34,170.7,127.81z M174,160.5h-2.81v-25.36H174V160.5z"/>
	<path class="st1" d="M184.76,160.5h-2.81v-36h2.81V160.5z"/>
</g>
</svg>
