<?xml version="1.0" encoding="utf-8"?>
<!-- Generator: Adobe Illustrator 26.3.1, SVG Export Plug-In . SVG Version: 6.00 Build 0)  -->
<svg version="1.1" id="Ebene_1" xmlns="http://www.w3.org/2000/svg" xmlns:xlink="http://www.w3.org/1999/xlink" x="0px" y="0px"
	 viewBox="0 0 86.52 141.27" style="enable-background:new 0 0 86.52 141.27;" xml:space="preserve">
<style type="text/css">
	.st0{fill-rule:evenodd;clip-rule:evenodd;fill:#393939;}
	.st1{fill:#638EF6;}
	.st2{fill:#FFFFFF;}
	.st3{fill:#393939;}
</style>
<path class="st0" d="M43.33,0C19.49,0,0.14,19.36,0.14,43.2s19.35,43.19,43.19,43.19h43.09h0c0-0.02,0.1-42.21,0.1-43.19
	C86.52,19.36,67.17,0,43.33,0z"/>
<g>
	<polygon class="st1" points="74.59,27.58 19.45,19.25 19.45,19.25 19.45,19.25 19.45,19.25 19.45,19.25 28.74,74.87 59.27,59.07 
		59.27,59.07 	"/>
</g>
<g>
	<polygon class="st2" points="76.53,34.26 62.62,62.42 62.62,62.42 34.47,76.8 77.1,76.9 77.1,76.9 	"/>
</g>
<path class="st3" d="M0,128.48c0-3.85,0.82-6.88,2.47-9.1c1.65-2.22,3.95-3.32,6.91-3.32c2.15,0,3.97,0.85,5.44,2.56v-12.31h7.53
	v34.5H15.6l-0.38-2.61c-1.55,2.04-3.51,3.05-5.88,3.05c-2.87,0-5.14-1.11-6.82-3.32C0.84,135.73,0,132.57,0,128.48z M7.51,128.96
	c0,4.31,1.25,6.47,3.74,6.47c1.66,0,2.85-0.7,3.57-2.11v-9.25c-0.68-1.44-1.86-2.16-3.52-2.16c-2.32,0-3.57,1.89-3.77,5.66
	L7.51,128.96z"/>
<path class="st3" d="M33.72,116.51l0.25,2.85c1.71-2.2,4-3.3,6.89-3.3c3.05,0,5.1,1.22,6.17,3.66c1.63-2.44,4-3.66,7.09-3.66
	c4.89,0,7.4,2.98,7.53,8.94v15.81h-7.53v-15.34c0-1.24-0.21-2.15-0.62-2.72s-1.17-0.85-2.27-0.85c-1.49,0-2.59,0.67-3.32,2
	l0.02,0.31v16.6h-7.53v-15.3c0-1.27-0.2-2.19-0.6-2.76c-0.4-0.57-1.17-0.85-2.3-0.85c-1.44,0-2.54,0.67-3.3,2v16.91h-7.51v-24.3
	H33.72z"/>
<path class="st1" d="M72.81,123h2.76c1.53,0,2.87-0.27,4.01-0.82c1.14-0.55,2.02-1.3,2.62-2.25c0.6-0.95,0.9-2.05,0.9-3.29
	c0-2.1-0.59-3.74-1.76-4.92s-2.86-1.77-5.06-1.77c-2.08,0-3.78,0.62-5.11,1.85c-1.33,1.23-2,2.86-2,4.88H66.5
	c0-1.69,0.42-3.24,1.27-4.64c0.85-1.4,2.02-2.48,3.52-3.25c1.5-0.76,3.16-1.15,4.99-1.15c2.94,0,5.26,0.81,6.95,2.43
	c1.69,1.62,2.54,3.83,2.54,6.65c0,1.57-0.49,3.02-1.48,4.35c-0.99,1.33-2.34,2.32-4.07,2.98c2.02,0.57,3.55,1.55,4.59,2.93
	c1.04,1.38,1.56,3.04,1.56,4.95c0,2.8-0.91,5.05-2.72,6.76c-1.81,1.71-4.23,2.56-7.27,2.56c-1.93,0-3.7-0.39-5.31-1.17
	c-1.61-0.78-2.86-1.87-3.74-3.27c-0.88-1.4-1.33-3.03-1.33-4.89h2.67c0,2.08,0.72,3.78,2.16,5.09c1.44,1.31,3.29,1.97,5.55,1.97
	c2.3,0,4.1-0.59,5.38-1.79c1.28-1.19,1.93-2.92,1.93-5.18c0-2.19-0.69-3.86-2.08-5.01c-1.39-1.15-3.44-1.73-6.14-1.73h-2.67V123z"/>
</svg>
