<svg width="112" height="112" xmlns="http://www.w3.org/2000/svg" xmlns:xlink="http://www.w3.org/1999/xlink" xml:space="preserve" overflow="hidden"><defs><clipPath id="clip0"><rect x="640" y="108" width="112" height="112"/></clipPath></defs><g clip-path="url(#clip0)" transform="translate(-640 -108)"><path d="M735.454 204.499C735.55 203.729 735.638 202.955 735.699 202.185 735.778 201.183 735.817 200.159 735.817 199.105L735.817 199.109C735.817 184.882 728.227 171.739 715.907 164.626 703.592 157.516 688.41 157.516 676.094 164.626 663.774 171.739 656.184 184.882 656.184 199.109 656.184 200.164 656.224 201.187 656.302 202.189 656.359 202.959 656.438 203.734 656.547 204.504L656.547 204.499C668.076 212.685 681.862 217.081 696.002 217.081 710.142 217.081 723.928 212.684 735.456 204.499ZM711.672 117.442C706.798 112.577 699.942 110.258 693.118 111.159 686.293 112.065 680.277 116.09 676.839 122.053 673.4 128.02 672.932 135.243 675.57 141.6 678.208 147.961 683.651 152.73 690.301 154.51 696.955 156.287 704.051 154.874 709.511 150.682 714.971 146.487 718.173 139.994 718.173 133.112 718.178 127.232 715.837 121.588 711.672 117.441Z" fill="#C2C2C2" fill-rule="evenodd" fill-opacity="1"/></g></svg>