<svg width="21" height="21" viewBox="0 0 21 21" fill="none" xmlns="http://www.w3.org/2000/svg">
<path d="M0.837435 7.89863L3.13095 7.61504C3.16864 7.51862 3.20822 7.42305 3.24957 7.3283L1.82845 5.50602C1.53204 5.12597 1.56546 4.58464 1.90643 4.24385L4.24546 1.90612C4.58631 1.56553 5.12734 1.5323 5.50719 1.82856L7.32886 3.24905C7.4236 3.20763 7.51925 3.16805 7.61572 3.13031L7.89934 0.837416C7.95849 0.359092 8.36475 0 8.84668 0H12.154C12.6358 0 13.0422 0.359215 13.1013 0.837375L13.3848 3.13031C13.4812 3.16805 13.5768 3.20759 13.6714 3.24893L15.4932 1.82811C15.8733 1.53177 16.4144 1.56503 16.7552 1.90575L19.0939 4.24401C19.4347 4.58473 19.4681 5.12609 19.1717 5.5061L17.7508 7.32789C17.7922 7.42272 17.8319 7.51849 17.8696 7.61508L20.1626 7.89871C20.6409 7.95785 21.0001 8.36411 21.0001 8.84605V12.1535C21.0001 12.6355 20.6408 13.0419 20.1625 13.101L17.8697 13.384C17.832 13.4806 17.7924 13.5762 17.751 13.6709L19.1717 15.4928C19.468 15.8728 19.4347 16.414 19.0941 16.7547L16.7553 19.0938C16.4146 19.4346 15.8732 19.468 15.4932 19.1716L13.6714 17.7505C13.5768 17.7918 13.4812 17.8314 13.3849 17.869L13.1013 20.1626C13.0422 20.6409 12.6359 21 12.154 21H8.8466C8.36475 21 7.95845 20.6409 7.89926 20.1627L7.61564 17.869C7.51917 17.8313 7.42352 17.7918 7.32882 17.7504L5.50674 19.1716C5.12656 19.468 4.5854 19.4346 4.24456 19.0938L1.90606 16.7546C1.56542 16.4139 1.53212 15.8726 1.8285 15.4927L3.24924 13.6712C3.20781 13.5764 3.16815 13.4806 3.13041 13.384L0.837641 13.1008C0.359276 13.0418 6.10352e-05 12.6355 6.10352e-05 12.1535V8.84596C6.10352e-05 8.36411 0.359234 7.95781 0.837435 7.89863ZM10.5002 12.7272C11.7282 12.7272 12.7273 11.7283 12.7273 10.5003C12.7273 9.27203 11.7282 8.27277 10.5002 8.27277C9.27201 8.27277 8.27279 9.27203 8.27279 10.5003C8.27279 11.7283 9.27201 12.7272 10.5002 12.7272Z" fill="#4A4C60"/>
</svg>
