<svg className="paper-plane-icon" viewBox="0 0 25 26"
  fill="none" xmlns="http://www.w3.org/2000/svg">
  <path className="paper-plane-icon__path" fillRule="evenodd" clipRule="evenodd"
    d="M1.29145 0.0976974C0.988595 -0.0597883 0.628595 -0.0271026 0.357166 0.183869C0.0857375 0.39484 -0.0456911 0.74844 0.014309 1.09313L1.80002 10.3788C1.85717 10.7116 2.08574 10.985 2.39717 11.095L6.10574 12.9996L2.39717 14.9043C2.08859 15.0113 1.86002 15.2876 1.80002 15.6204L0.014309 24.9062C-0.0456911 25.2508 0.0857375 25.6044 0.357166 25.8154C0.628595 26.0264 0.988595 26.0591 1.29145 25.9016L24.5057 13.8316C24.8086 13.6742 25 13.3532 25 13.0026C25 12.652 24.8086 12.3281 24.5057 12.1736L1.29145 0.0976974Z"
    fill="white" />
</svg>
