<svg width="25" height="23" viewBox="0 0 25 23" fill="none" xmlns="http://www.w3.org/2000/svg">
<path d="M20 22.5333L18.6 21.1333L21.0333 18.6667H15V16.6667H21.0333L18.6 14.2L20 12.8L24.8667 17.6667L20 22.5333ZM5.33333 7.33333H16V5.33333H5.33333V7.33333ZM5.33333 13H12V11H5.33333V13ZM0 22.6667V2C0 1.44444 0.194444 0.972222 0.583333 0.583333C0.972222 0.194444 1.44444 0 2 0H19.3333C19.8889 0 20.3611 0.194444 20.75 0.583333C21.1389 0.972222 21.3333 1.44444 21.3333 2V9.43333C21.1111 9.38889 20.8889 9.36111 20.6667 9.35C20.4444 9.33889 20.2222 9.33333 20 9.33333C17.8889 9.33333 16.0278 10.1444 14.4167 11.7667C12.8056 13.3889 12 15.2444 12 17.3333C12 17.5556 12.0056 17.7778 12.0167 18C12.0278 18.2222 12.0556 18.4444 12.1 18.6667H4L0 22.6667Z" fill="white"/>
</svg>
