<svg id="Ebene_1" data-name="Ebene 1" xmlns="http://www.w3.org/2000/svg" viewBox="0 0 184.76 160.97"><defs><style>.cls-1,.cls-4{fill:#fff;}.cls-1{fill-rule:evenodd;}.cls-2{fill:#638ef6;}.cls-3{fill:#393939;}</style></defs><path class="cls-1" d="M43.2,0a43.2,43.2,0,0,0,0,86.39H86.29s.1-42.22.1-43.19A43.22,43.22,0,0,0,43.2,0Z"/><polygon class="cls-2" points="74.47 27.58 19.33 19.25 19.33 19.25 19.33 19.25 19.33 19.25 19.33 19.25 28.61 74.87 59.15 59.07 59.14 59.07 74.47 27.58"/><polygon class="cls-3" points="76.4 34.26 62.49 62.42 62.49 62.42 34.35 76.8 76.97 76.9 76.97 76.9 76.4 34.26"/><path class="cls-4" d="M21.16,146H8.23v8.16H23.51v6.33H0V126.37H23.55v6.35H8.23v7.2H21.16Z"/><path class="cls-4" d="M55.35,160.5H47.17L35.08,139.26V160.5H26.86V126.37h8.22l12.07,21.24V126.37h8.2Z"/><path class="cls-4" d="M78.16,151.43a3.37,3.37,0,0,0-1.28-2.81,15.67,15.67,0,0,0-4.49-2.09,42,42,0,0,1-5.25-2.09q-6.63-3.25-6.63-8.95a8,8,0,0,1,1.65-5,10.68,10.68,0,0,1,4.68-3.38,18.25,18.25,0,0,1,6.79-1.21,15.88,15.88,0,0,1,6.6,1.32A10.37,10.37,0,0,1,84.76,131a9.72,9.72,0,0,1,1.62,5.54h-8.2a4.15,4.15,0,0,0-1.28-3.24,5,5,0,0,0-3.46-1.14,5.64,5.64,0,0,0-3.48,1,3,3,0,0,0-1.27,2.47,3,3,0,0,0,1.4,2.38,17.62,17.62,0,0,0,5,2.2,30.83,30.83,0,0,1,5.81,2.45q5.54,3.19,5.53,8.79a8.32,8.32,0,0,1-3.37,7Q79.64,161,73.75,161a18.37,18.37,0,0,1-7.51-1.49,11.28,11.28,0,0,1-5.06-4.08,10.56,10.56,0,0,1-1.7-6h8.25a5.26,5.26,0,0,0,1.41,4c1,.87,2.48,1.3,4.61,1.3A5.26,5.26,0,0,0,77,153.9,2.91,2.91,0,0,0,78.16,151.43Z"/><path class="cls-2" d="M108.1,126.37l12.59,30.12,12.63-30.12h3.84V160.5h-2.88V145.64l.24-15.24-12.71,30.1h-2.22l-12.66-30,.24,15V160.5h-2.88V126.37Z"/><path class="cls-2" d="M161.16,160.5a13.44,13.44,0,0,1-.54-3.54,9.72,9.72,0,0,1-3.76,3A11.46,11.46,0,0,1,152,161a8.5,8.5,0,0,1-5.92-2,6.67,6.67,0,0,1-2.26-5.16,6.8,6.8,0,0,1,3.08-5.86c2.06-1.44,4.92-2.15,8.59-2.15h5.09v-2.89a5.54,5.54,0,0,0-1.68-4.27A6.89,6.89,0,0,0,154,137a7.63,7.63,0,0,0-4.85,1.5,4.44,4.44,0,0,0-1.93,3.61l-2.81,0a6.52,6.52,0,0,1,2.81-5.23,10.83,10.83,0,0,1,6.92-2.22,9.89,9.89,0,0,1,6.69,2.12,7.65,7.65,0,0,1,2.52,5.92v12a15,15,0,0,0,.77,5.51v.28Zm-8.81-2a9.41,9.41,0,0,0,5-1.36,8,8,0,0,0,3.22-3.63v-5.58h-5a12.59,12.59,0,0,0-6.56,1.54,4.59,4.59,0,0,0-2.36,4.09,4.52,4.52,0,0,0,1.58,3.54A6,6,0,0,0,152.35,158.48Z"/><path class="cls-2" d="M170.7,127.81a1.87,1.87,0,0,1,.51-1.33,1.85,1.85,0,0,1,1.41-.55,1.87,1.87,0,0,1,1.42.55,1.85,1.85,0,0,1,.53,1.33,1.82,1.82,0,0,1-.53,1.33,1.9,1.9,0,0,1-1.42.54,1.88,1.88,0,0,1-1.41-.54A1.84,1.84,0,0,1,170.7,127.81ZM174,160.5h-2.81V135.14H174Z"/><path class="cls-2" d="M184.76,160.5H182v-36h2.81Z"/></svg>